# xmcd
#
# Track frame offsets: 
#        180
#        22861
#        43709
#        65897
#        84526
#        100940
#        120081
#        138210
#        162466
#        188253
#        221889
#        235049
#        256495
#        281685
#
# Disc length: 4036 seconds
#
# Revision: 0
# Processed by: cddbd v1.5.2PL0 Copyright (c) Steve Scherf et al.
# Submitted via: ExactAudioCopy v1.0b1
#
DISCID=bc0fc20e
DTITLE=Various Artist - Seleksi Emas Vol. 3
DYEAR=1997
DGENRE=Melayu
TTITLE0=Jamal Abdillah - Sepi Seorang Perindu
TTITLE1=Ramli Sarip - Bukan Kerna Nama
TTITLE2=Nash - Asli
TTITLE3=SM Salim and Susan Lankester - Dilema
TTITLE4=Jay Jay - Kenangan Taman Cinta
TTITLE5=Francissca Peter - Diri Ku Terbelenggu
TTITLE6=Ella - Puteri Kota
TTITLE7=Lefthanded - Debunga Wangi
TTITLE8=Sweet Charity - Sejuta Wajah
TTITLE9=Sheila Majid - Sinaran (Live)
TTITLE10=Shades - Malam
TTITLE11=Eva - Bulan Cinta
TTITLE12=Zainal Abidin - Pantun?
TTITLE13=Mas Idayu - Robek Hati Ku
EXTD=
EXTT0=
EXTT1=
EXTT2=
EXTT3=
EXTT4=
EXTT5=
EXTT6=
EXTT7=
EXTT8=
EXTT9=
EXTT10=
EXTT11=
EXTT12=
EXTT13=
PLAYORDER=
